<?xml version="1.0" encoding="UTF-8"?>
<svg width="702px" height="136px" viewBox="0 0 702 136" version="1.1" xmlns="http://www.w3.org/2000/svg" xmlns:xlink="http://www.w3.org/1999/xlink">
    <!-- Generator: Sketch 57.1 (83088) - https://sketch.com -->
    <title>StreamViewer Copy 2</title>
    <desc>Created with Sketch.</desc>
    <defs>
        <path d="M66.632,14.096 C58.712,14.096 23,41.312 23,57.008 C23,61.616 28.76,64.784 33.944,67.088 C61.448,79.184 68.792,81.056 68.792,89.12 C68.792,92.432 68.072,97.04 65.912,103.52 C61.88,115.616 35.384,126.128 21.272,126.128 C9.176,126.128 5,123.104 5,117.344 C5,111.008 9.464,102.944 11.768,102.656 C12.92,102.656 14.072,103.376 14.072,104.096 C14.072,104.528 13.784,105.392 13.784,106.112 C13.928,107.696 15.944,108.992 23.288,108.992 C33.368,108.992 56.696,100.208 56.696,93.584 C56.696,90.848 50.936,89.408 32.216,81.056 C17.672,74.576 8.168,67.376 8.168,51.968 C8.168,32.24 45.608,2 69.224,2 C73.256,2 80.888,9.632 80.888,13.232 C80.888,25.472 64.472,50.672 64.472,59.168 C64.472,60.032 64.904,60.752 64.904,61.184 C64.904,62.048 63.896,62.192 63.176,62.192 C57.848,62.192 50.504,55.136 50.504,48.08 C50.504,41.168 66.056,22.16 66.632,14.096 Z M95,9.056 C103.496,9.056 112.568,14.384 112.568,21.44 C112.568,22.736 108.104,35.984 107.384,38.432 C107.96,38.576 108.536,38.576 109.112,38.576 C110.12,38.576 111.272,38.432 112.424,38.432 C112.856,38.432 113.144,38.576 113.144,39.296 C113.144,43.328 109.976,46.208 106.088,46.208 C105.656,46.208 105.08,46.208 104.648,46.064 C98.168,62.768 89.96,82.496 89.96,89.984 C89.96,91.712 89.96,93.008 90.968,93.008 C94.28,93.008 107.096,74.576 106.664,74.576 C107.816,74.576 111.704,78.608 111.704,81.488 C111.704,83.936 89.816,116.912 81.176,116.912 C75.272,116.912 72.536,108.128 72.536,99.632 C72.536,85.664 81.032,65.504 87.512,44.624 C83.336,43.616 81.608,47.216 80.6,47.216 C79.592,47.216 78.872,45.92 78.872,44.192 C78.872,40.016 82.904,35.696 87.512,35.552 L89.96,35.552 C90.824,31.808 95.576,18.128 95.576,15.968 C95.576,12.944 93.848,11.648 93.848,10.352 C93.848,9.92 94.568,9.056 95,9.056 Z M152.6,74.864 C152.6,74.864 157.784,77.312 157.784,81.056 L157.784,81.92 C156.92,86.24 137.48,116.912 129.848,116.912 C124.088,116.912 120.92,108.272 121.928,100.208 C123.08,90.56 132.584,69.536 132.584,53.984 C132.584,50.96 130.28,47.216 126.248,43.76 C122.792,57.152 113.576,78.752 110.408,84.224 C108.968,84.656 103.064,84.512 103.064,80.768 C103.064,81.2 115.592,59.024 115.592,28.208 C115.592,26.192 115.592,24.176 115.448,22.016 C115.448,22.016 127.832,22.88 128.408,31.664 C128.408,32.384 128.408,33.392 128.264,34.688 C135.32,36.56 150.728,42.464 150.728,52.112 C150.728,58.304 137.336,93.152 139.784,93.152 C142.952,93.152 151.736,76.88 152.6,74.864 Z M201.416,74.864 C201.416,74.864 206.6,77.456 206.6,81.2 C206.6,83.36 203.432,88.688 200.984,92.864 C193.784,105.104 181.832,117.056 170.168,117.056 C154.904,117.056 149,107.12 149,91.136 C149,82.496 157.208,34.112 175.352,34.112 C184.136,34.112 197.672,42.32 197.672,52.4 C197.672,59.888 186.296,82.352 176.936,82.352 C173.048,82.352 169.88,80.336 167.72,78.032 C167.432,79.328 167.288,81.056 167.288,82.928 C167.288,90.416 169.736,101.504 176.648,102.08 C185.72,102.08 197.672,82.064 201.416,74.864 Z M179.096,43.184 C177.368,43.184 171.608,54.848 168.872,68.672 C169.736,70.4 171.032,71.984 172.616,72.128 C175.928,72.128 182.84,59.888 183.848,48.224 C182.264,45.488 180.536,43.184 179.096,43.184 Z M255.704,74.864 C255.704,74.864 260.888,77.456 260.888,81.2 L260.888,82.064 C260.024,86.384 240.584,117.056 233.096,117.056 C227.192,117.056 225.464,108.56 225.464,100.064 C225.464,97.76 225.608,95.312 225.896,93.152 C219.272,105.68 213.512,113.744 207.608,113.744 C198.536,113.744 197.672,99.488 197.672,89.984 C197.672,79.04 207.032,34.112 224.024,34.112 C233.528,34.112 238.136,41.024 240.296,46.64 C240.728,45.776 241.304,44.912 242.168,44.912 C246.92,45.056 252.968,51.536 252.968,56 C252.968,58.592 241.88,83.216 241.88,91.28 C241.88,92.576 242.312,93.152 242.888,93.152 C246.056,93.152 254.84,76.88 255.704,74.864 Z M216.104,79.76 C216.104,81.488 216.248,90.272 218.984,90.272 C221.864,90.272 226.184,82.496 229.928,75.008 C231.8,67.808 234.104,60.176 235.832,54.704 C233.816,50.384 230.216,44.48 227.624,44.48 C224.6,44.48 216.104,62.768 216.104,79.76 Z M345.272,75.152 C345.848,75.152 350.456,78.176 350.456,82.352 C349.592,86.672 332.024,117.488 323.096,117.488 C317.336,117.488 314.6,110.576 314.6,102.224 C314.6,93.728 319.496,74.144 324.392,59.024 C316.76,63.92 304.376,71.264 301.496,90.272 C301.496,95.312 301.64,100.352 303.368,105.68 C299.336,110.288 292.568,115.76 290.12,115.76 C284.216,115.76 282.2,109.712 282.2,101.216 C282.2,87.248 287.384,73.568 291.704,60.032 C279.752,67.376 269.528,79.904 269.528,95.024 C269.528,98.912 270.392,102.944 271.688,106.832 C267.656,111.44 260.888,115.76 258.44,115.76 C252.536,115.76 250.52,109.712 250.52,101.216 C250.52,89.552 264.92,38.864 267.656,38.864 C271.4,38.864 280.472,44.624 280.472,48.944 C280.472,49.664 278.6,56.288 276.728,61.328 C286.088,51.968 297.752,41.168 299.768,41.168 C303.512,41.168 312.584,46.928 312.584,51.248 C312.584,51.968 310.424,55.856 308.696,60.176 C316.616,52.256 330.872,40.016 333.32,40.016 C337.928,40.016 344.264,44.336 344.264,48.656 C344.264,48.944 344.264,49.376 344.12,49.808 C345.272,47.504 328.136,94.88 332.744,94.88 C335.912,94.88 344.408,77.168 345.272,75.152 Z M411.08,18.56 C411.08,35.408 400.856,64.352 396.392,88.256 C409.496,69.824 433.688,32.384 433.688,13.376 C433.688,6.896 430.664,7.472 430.52,5.888 C430.52,4.16 432.248,2.288 432.968,2.288 C436.28,2.288 449.816,10.784 449.816,20.432 C449.816,37.424 394.664,105.536 394.664,112.592 C391.208,115.616 386.888,116.624 384.296,116.624 C378.824,116.624 373.64,109.712 373.64,101.216 C373.64,84.08 392.072,41.024 395.096,16.832 C383,16.832 364.712,46.928 364.712,51.968 C364.712,56.288 370.76,55.136 371.192,56.576 C371.192,57.584 365.576,59.888 362.552,59.888 C361.688,59.888 361.112,59.744 360.824,59.312 C355.784,50.384 349.304,50.096 349.304,41.456 C349.304,26.192 379.544,4.016 397.688,4.016 C405.464,4.016 411.08,8.192 411.08,18.56 Z M466.232,75.008 C468.536,75.008 472.568,79.328 471.56,82.064 C469.688,86.816 448.088,117.056 440.6,117.056 C434.84,117.056 432.968,108.704 432.968,100.352 C432.968,81.92 442.616,58.304 448.808,40.448 C449.24,39.728 449.96,39.44 450.968,39.44 C455.144,39.44 462.776,45.344 462.776,49.952 C462.776,52.544 449.528,83.216 449.528,91.424 C449.528,92.576 449.816,93.152 450.536,93.152 C454.136,93.152 462.2,84.368 466.232,75.008 Z M452.12,22.736 C452.264,16.544 457.16,10.208 463.064,10.208 C467.528,10.208 470.984,13.808 470.984,18.848 C470.552,25.184 465.656,31.376 459.608,31.376 C455,31.376 452.12,27.92 452.12,22.736 Z M515.192,74.864 C515.192,74.864 520.376,77.456 520.376,81.2 C520.376,83.36 517.208,88.688 514.76,92.864 C507.56,105.104 495.608,117.056 483.944,117.056 C468.68,117.056 462.776,107.12 462.776,91.136 C462.776,82.496 470.984,34.112 489.128,34.112 C497.912,34.112 511.448,42.32 511.448,52.4 C511.448,59.888 500.072,82.352 490.712,82.352 C486.824,82.352 483.656,80.336 481.496,78.032 C481.208,79.328 481.064,81.056 481.064,82.928 C481.064,90.416 483.512,101.504 490.424,102.08 C499.496,102.08 511.448,82.064 515.192,74.864 Z M492.872,43.184 C491.144,43.184 485.384,54.848 482.648,68.672 C483.512,70.4 484.808,71.984 486.392,72.128 C489.704,72.128 496.616,59.888 497.624,48.224 C496.04,45.488 494.312,43.184 492.872,43.184 Z M565.448,53.408 C559.544,66.944 557.24,79.184 557.24,86.24 C557.24,90.128 557.96,92.432 559.112,92.432 C565.592,92.432 582.584,56.864 585.032,40.736 C585.32,38.576 586.184,38 587.192,38 C591.224,38 595.688,46.928 595.688,51.104 C593.096,62.768 570.92,113.312 553.208,113.312 C546.44,113.312 541.688,101.648 541.112,91.856 C533.48,102.8 524.984,113.6 519.944,113.6 C513.32,113.6 511.448,103.952 511.448,95.024 C511.448,79.04 521.528,36.848 529.016,36.848 C532.76,36.848 540.392,44.048 540.392,47.936 C540.392,48.368 540.248,48.8 540.104,49.088 C534.776,56.864 528.584,81.344 528.584,88.976 C528.584,90.992 529.016,91.712 529.736,91.712 C532.328,91.712 538.808,80.912 541.832,76.448 C543.416,64.064 549.32,45.488 551.768,42.176 C552.2,41.6 552.92,41.312 553.784,41.312 C557.816,41.312 565.592,47.504 565.592,52.256 C565.592,52.688 565.592,53.12 565.448,53.408 Z M643.784,74.864 C643.784,74.864 648.968,77.456 648.968,81.2 C648.968,83.36 645.8,88.688 643.352,92.864 C636.152,105.104 624.2,117.056 612.536,117.056 C597.272,117.056 591.368,107.12 591.368,91.136 C591.368,82.496 599.576,34.112 617.72,34.112 C626.504,34.112 640.04,42.32 640.04,52.4 C640.04,59.888 628.664,82.352 619.304,82.352 C615.416,82.352 612.248,80.336 610.088,78.032 C609.8,79.328 609.656,81.056 609.656,82.928 C609.656,90.416 612.104,101.504 619.016,102.08 C628.088,102.08 640.04,82.064 643.784,74.864 Z M621.464,43.184 C619.736,43.184 613.976,54.848 611.24,68.672 C612.104,70.4 613.4,71.984 614.984,72.128 C618.296,72.128 625.208,59.888 626.216,48.224 C624.632,45.488 622.904,43.184 621.464,43.184 Z M690.296,74.864 C690.296,74.864 695.48,77.312 695.48,81.056 C695.48,81.344 695.48,81.632 695.48,81.92 C694.616,86.24 675.176,116.912 667.544,116.912 C661.784,116.912 658.616,108.272 659.624,100.208 C660.776,90.56 670.28,69.536 670.28,53.984 C670.28,50.96 667.976,47.216 663.944,43.76 C660.488,57.152 651.272,78.752 648.104,84.224 C646.664,84.656 640.76,84.512 640.76,80.768 C640.76,81.2 653.288,59.024 653.288,28.208 C653.288,26.192 653.288,24.176 653.144,22.016 C653.144,22.016 665.528,22.88 666.104,31.664 C666.104,32.384 666.104,33.392 665.96,34.688 C673.016,36.56 688.424,42.464 688.424,52.112 C688.424,58.304 675.032,93.152 677.48,93.152 C680.648,93.152 689.432,76.88 690.296,74.864 Z" id="path-1"></path>
        <filter x="-1.4%" y="-5.6%" width="103.2%" height="117.7%" filterUnits="objectBoundingBox" id="filter-2">
            <feMorphology radius="0.5" operator="erode" in="SourceAlpha" result="shadowSpreadOuter1"></feMorphology>
            <feOffset dx="1" dy="4" in="shadowSpreadOuter1" result="shadowOffsetOuter1"></feOffset>
            <feGaussianBlur stdDeviation="3.5" in="shadowOffsetOuter1" result="shadowBlurOuter1"></feGaussianBlur>
            <feColorMatrix values="0 0 0 0 0.0431372549   0 0 0 0 0.0509803922   0 0 0 0 0.133333333  0 0 0 0.3 0" type="matrix" in="shadowBlurOuter1"></feColorMatrix>
        </filter>
    </defs>
    <g id="Page-1" stroke="none" stroke-width="1" fill="none" fill-rule="evenodd">
        <g id="StreamViewer-Copy-2" fill-rule="nonzero">
            <use fill="black" fill-opacity="1" filter="url(#filter-2)" xlink:href="#path-1"></use>
            <use fill="#EE2E31" xlink:href="#path-1"></use>
        </g>
    </g>
</svg>